<?xml version="1.0" encoding="utf-8"?>
<!-- Generator: Adobe Illustrator 22.0.1, SVG Export Plug-In . SVG Version: 6.00 Build 0)  -->
<svg version="1.1" id="Layer_1" xmlns="http://www.w3.org/2000/svg" xmlns:xlink="http://www.w3.org/1999/xlink" x="0px" y="0px"
	 viewBox="0 0 500 500" style="enable-background:new 0 0 500 500;" xml:space="preserve">
<style type="text/css">
	.st0{fill:#FFFFFF;}
</style>
<g id="noun_quality_1646497" transform="translate(0.037037, 0.037037)">
</g>
<g>
	<path class="st0" d="M19.8,175.5c8.3,0,15-6.7,15-15v-100c0-13.8,11.2-25,25-25h100c8.3,0,15-6.7,15-15s-6.7-15-15-15h-100
		c-30.3,0-55,24.7-55,55v100C4.8,168.8,11.5,175.5,19.8,175.5z"/>
	<path class="st0" d="M439.8,5.5h-100c-8.3,0-15,6.7-15,15s6.7,15,15,15h100c13.8,0,25,11.2,25,25v100c0,8.3,6.7,15,15,15
		s15-6.7,15-15v-100C494.8,30.2,470.1,5.5,439.8,5.5z"/>
	<path class="st0" d="M135.7,320.5v30c0,7.7,6.3,14,14,14h180c7.7,0,14-6.3,14-14v-30c0-41.5-24.6-77.2-59.9-93.8
		c12.2-11.7,19.9-28,19.9-46.2c0-35.3-28.7-64-64-64s-64,28.7-64,64c0,18.2,7.7,34.5,19.9,46.2C160.4,243.3,135.7,279,135.7,320.5z
		 M315.7,320.5v16h-152v-16c0-41.9,34.1-76,76-76S315.7,278.6,315.7,320.5z M239.8,144.5c19.9,0,36,16.1,36,36s-16.1,36-36,36
		s-36-16.1-36-36S219.9,144.5,239.8,144.5z"/>
	<path class="st0" d="M159.8,465.5h-100c-13.8,0-25-11.2-25-25v-100c0-8.3-6.7-15-15-15s-15,6.7-15,15v100c0,30.3,24.7,55,55,55h100
		c8.3,0,15-6.7,15-15S168,465.5,159.8,465.5z"/>
	<path class="st0" d="M479.8,325.5c-8.3,0-15,6.7-15,15v100c0,13.8-11.2,25-25,25h-100c-8.3,0-15,6.7-15,15s6.7,15,15,15h100
		c30.3,0,55-24.7,55-55v-100C494.8,332.2,488,325.5,479.8,325.5z"/>
</g>
</svg>
